<?xml version="1.0" encoding="utf-8"?>
<!-- Generator: Adobe Illustrator 24.0.2, SVG Export Plug-In . SVG Version: 6.00 Build 0)  -->
<svg version="1.1" xmlns="http://www.w3.org/2000/svg" xmlns:xlink="http://www.w3.org/1999/xlink" x="0px" y="0px"
	 viewBox="0 0 294 360" style="enable-background:new 0 0 294 360;" xml:space="preserve">
<style type="text/css">
	.st0{opacity:0.5;}
	.st1{fill:#F59B47;stroke:#331710;stroke-width:4;stroke-miterlimit:10;}
	.st2{fill:#F59C47;}
	.st3{fill:#331710;}
	.st4{fill:#F49B47;}
	.st5{fill:#E8B264;}
</style>
<g id="fondo">
	<path class="st0" d="M279.8,360H14.2C6.4,360,0,353.6,0,345.8V14.2C0,6.4,6.4,0,14.2,0h265.7c7.8,0,14.2,6.4,14.2,14.2v331.7
		C294,353.6,287.6,360,279.8,360z"/>
</g>
<g id="base_horca">
	<path class="st1" d="M263.5,342.5H18.7c-4,0-7.3-3.3-7.3-7.3v-2.7c0-4,3.3-7.3,7.3-7.3h244.9c4,0,7.3,3.3,7.3,7.3v2.7
		C270.8,339.2,267.5,342.5,263.5,342.5z"/>
	<path class="st1" d="M169.5,36.3H35.9c-2.7,0-4.9-2.2-4.9-4.9v-4.5c0-2.7,2.2-4.9,4.9-4.9h133.6c2.7,0,4.9,2.2,4.9,4.9v4.5
		C174.5,34.1,172.2,36.3,169.5,36.3z"/>
	<path class="st1" d="M47.9,31.4v294.4c0,4.4-3.6,8-8,8h-1.4c-4.4,0-8-3.6-8-8V31.4c0-4.4,3.6-8,8-8H40C44.4,23.4,47.9,27,47.9,31.4
		z"/>
	<g id="Capa_3">
		<g>
			<path class="st2" d="M164.8,27.6c0,7.1,0.1,29.3,0.1,36.4c0,0.4-0.2,0.6-0.9,0.6c-3.9,0.1-3.9,0.2-3.9-2.3c0-6.6,0-28.2,0-34.8
				C161.7,27.6,163.3,27.6,164.8,27.6z"/>
			<path class="st3" d="M197,114.7c-0.2-3.5-2-6.7-3.9-10c-3.9-6.5-9.1-12.6-14.7-18.6c-0.4-0.4-0.5-0.7,0.2-1
				c3.1-1.5,3.7-4.1,1.6-6.1c-0.4-0.4-0.4-0.6,0-1c1.7-1.7,1.8-3.4,0-5.1c-0.5-0.5-0.3-0.7,0.1-1.1c2.9-2.8,0.3-6.4-4.9-7
				c-1.2-0.1-2.5-0.2-3.7-0.1c-1.3,0.1-1.7-0.1-1.7-1c0.1-6.8,0-28.7,0-35.5c0-1.2-0.7-1.9-2.2-2.1c-1.4-0.1-2.3,0.4-2.9,1.5
				c-0.6,0.5-0.4,16-0.4,16.5c0,6.1,0,12.3,0,18.4c0,0.3,0,0.7,0,1c0,0.2-0.1,0.5-0.4,0.6c-0.9,0.2-1.9,0.2-2.8,0
				c-0.8-0.2-0.5-0.7-0.6-1.1c0-0.3,0-0.6,0-0.8c0-6,0-12.1,0-18.1c0-0.5,0.1-16.1-0.5-16.5c-0.6-1.1-1.5-1.6-2.9-1.5
				c-1.4,0.1-2.1,0.8-2.2,2c0,0.2,0,0.4,0,0.6c0,6.1,0,27.3,0,33.4c0,0.8,0.6,1.9-0.3,2.4c-0.7,0.5-2.4,0.1-3.6,0.1
				c-0.1,0-0.2,0-0.3,0c-6.1,0.3-9.2,4.1-5.9,7.3c0.4,0.4,0.3,0.5,0,0.9c-1.8,1.7-1.8,3.5-0.1,5.2c0.4,0.4,0.4,0.6,0,1
				c-2.1,1.9-1.6,4.6,1.2,5.9c1.1,0.5,0.9,0.9,0.4,1.5c-6.4,6.9-12.4,14-16.3,21.7c-2,3.9-3,7.9-1.5,11.9c3.3,8.8,12,14.4,25.9,16.8
				c1.3,0.2,2.8,0.1,4,0.6c2.5,0,5,0,7.5,0c0.1-0.1,0.3-0.2,0.5-0.2c7.7-0.6,14.3-2.5,19.8-5.9C193.9,126.8,197.4,121.2,197,114.7z
				 M182.1,117c-0.8,6.4-10.6,11.7-20.9,11.1c-9.3-0.5-16.3-4.4-18.1-10.1c-0.9-2.7,0.1-5.2,1.5-7.7c4.2-7.9,10.7-15,17.5-22.1
				c0.6-0.7,1-1.4,2.1-1.9c1.4,0.8,2.5,1.8,2.8,3c-1.4,1-1.5,1.4-0.4,2.6c4.9,5.4,9.6,10.9,13,16.7
				C181.1,111.3,182.5,114.1,182.1,117z"/>
			<path class="st2" d="M166.9,89.2c-0.9-1-1.8-2-2.8-3c2.6,0,5.2,0,7.8-0.1c0.6,0,0.9,0.1,1.2,0.4c6.9,7.5,13.6,15.1,17.6,23.4
				c4.4,9.2-1.9,18.3-15.7,22.5c-16.2,4.9-36.4-1-41-12c-1.8-4.2-0.8-8.3,1.3-12.3c3.5-6.6,8.6-12.8,14.1-18.8
				c0.8-0.9,1.7-1.8,2.5-2.7c0.3-0.4,0.7-0.6,1.5-0.6c1.5,0,3,0,4.5,0c0.1,0.4-0.4,0.7-0.6,0.9c-5.2,5.6-10.3,11.2-14.3,17.2
				c-2,3.1-4,6.1-4.8,9.4c-1,4.4,0.8,8.4,5.3,11.7c6.2,4.7,14.4,6.5,23.9,5.4c9.4-1.2,15.6-4.8,18.7-10.5c1.7-3.2,1.3-6.4-0.1-9.6
				c-1.9-4.2-4.7-8.2-7.8-12c-2.3-2.9-4.8-5.7-7.3-8.5C169.7,89.1,169,88.9,166.9,89.2z"/>
			<path class="st4" d="M161.6,72.5c0.4,1,1.5,1.4,3.1,1.4c2.9,0,5.8,0,8.7,0c1.4,0,2.6,0.2,3,1.2c0.4,1.1-0.8,1.9-2.9,1.9
				c-3.3,0-6.5,0-9.8,0c-4,0-8,0-12,0c-1.4,0-2.6-0.2-3-1.2c-0.3-0.9,0.4-1.6,1.9-1.8c1-0.2,2-0.1,3-0.1c1.7,0.1,2.8-0.4,3.2-1.4
				C158.4,72.1,160,72.1,161.6,72.5z"/>
			<path class="st5" d="M161.6,72.5c-1.6,0-3.2,0-4.8,0c-0.5-1.4-1.1-1.7-3.4-1.7c-0.9,0-1.7,0-2.5,0c-1.4-0.1-2.3-0.7-2.2-1.6
				c0.1-0.8,1-1.4,2.3-1.4c7.7,0,15.4,0,23.1,0c1.4,0,2.4,0.6,2.4,1.5c0,0.9-0.9,1.5-2.4,1.5c-3,0-6.1,0-9.2,0
				C162.7,70.8,162,71.2,161.6,72.5z"/>
			<path class="st5" d="M162.4,83.1c-3.6,0-7.2,0-10.8,0c-1.9,0-3-0.6-2.9-1.5c0-1,1.1-1.5,3-1.5c7.3,0,14.6,0,21.9,0
				c1.9,0,2.9,0.6,2.9,1.5c0,1-1,1.5-3,1.5C169.8,83.1,166.1,83.1,162.4,83.1z"/>
		</g>
	</g>
</g>
</svg>
