<svg xmlns="http://www.w3.org/2000/svg" viewBox="0 0 294 360"><defs><style>.cls-1{fill:#1d1d1b;opacity:0.5;}.cls-2{fill:#f59b47;stroke:#331710;stroke-miterlimit:10;stroke-width:4px;}.cls-3{fill:#f59c47;}.cls-4{fill:#331710;}.cls-5{fill:#f49b47;}.cls-6{fill:#e8b264;}.cls-7{fill:#f2af9a;}.cls-8{fill:#111;}.cls-9{fill:#f9c4af;}.cls-10{fill:#f7c5b0;}.cls-11{fill:#f8c5af;}.cls-12{fill:#160d0b;}.cls-13{fill:#fdfdfd;}.cls-14{fill:#decfcb;}.cls-15{fill:#e3cdc5;}.cls-16{fill:#decfca;}.cls-17{fill:#e2cdc8;}.cls-18{fill:#030404;}.cls-19{fill:#030303;}.cls-20{fill:#efefef;}.cls-21{fill:#f0f0f0;}</style></defs><title>escena2</title><g id="fondo"><rect class="cls-1" width="294" height="360" rx="14.17"/></g><g id="base_horca" data-name="base horca"><rect class="cls-2" x="11.36" y="325.14" width="259.46" height="17.33" rx="7.29"/><rect class="cls-2" x="30.99" y="21.87" width="143.46" height="14.42" rx="4.95"/><rect class="cls-2" x="-115.9" y="169.95" width="310.38" height="17.33" rx="7.98" transform="translate(-139.33 217.9) rotate(-90)"/><g id="Capa_3" data-name="Capa 3"><path class="cls-3" d="M157.32,27.32c0,5.77.05,23.67.08,29.45,0,.35-.17.46-.74.49-3.13.12-3.13.13-3.13-1.86,0-5.32,0-22.76,0-28.08Z"/><path class="cls-4" d="M182.9,97.72c-.19-2.8-1.59-5.45-3.13-8a92.5,92.5,0,0,0-11.69-15c-.32-.35-.42-.54.19-.84,2.46-1.22,3-3.28,1.24-4.94-.35-.33-.34-.51,0-.84,1.38-1.36,1.41-2.76,0-4.11-.4-.39-.27-.58.07-.91,2.29-2.25.24-5.18-3.92-5.67a17.49,17.49,0,0,0-3-.08c-1,0-1.33-.1-1.32-.8.05-5.52,0-23.17,0-28.68,0-1-.6-1.56-1.72-1.66a2.09,2.09,0,0,0-2.31,1.21c-.48.37-.32,13-.32,13.37q0,7.44,0,14.88a4.64,4.64,0,0,1,0,.83c0,.17,0,.39-.33.46a4.94,4.94,0,0,1-2.23,0c-.62-.13-.42-.55-.47-.86a5.14,5.14,0,0,1,0-.68q0-7.34,0-14.65c0-.42.1-13-.38-13.37a2.09,2.09,0,0,0-2.31-1.21c-1.09.1-1.68.64-1.72,1.58v.46c0,5,0,22.05,0,27,0,.67.44,1.52-.2,2s-1.89.07-2.88.11h-.23c-4.9.23-7.37,3.29-4.72,5.89.29.29.26.44,0,.71-1.45,1.38-1.46,2.8-.06,4.18.34.34.35.51,0,.84-1.64,1.57-1.27,3.69,1,4.79.86.43.75.7.3,1.19-5.12,5.61-9.89,11.33-13,17.55-1.56,3.16-2.39,6.37-1.18,9.63,2.65,7.08,9.55,11.62,20.65,13.54a20.77,20.77,0,0,1,3.19.45h6c.06-.11.21-.12.38-.13a34.37,34.37,0,0,0,15.75-4.74C180.42,107.48,183.24,103,182.9,97.72Zm-11.82,1.85c-.62,5.17-8.47,9.42-16.63,9-7.43-.42-13-3.56-14.44-8.19-.69-2.16.11-4.23,1.18-6.25,3.38-6.34,8.5-12.14,13.9-17.85a5.47,5.47,0,0,1,1.63-1.53c1.09.67.36-1,.61,0-1.09.77.44,3.54,1.3,4.5A84.45,84.45,0,0,1,169,92.73C170.27,94.93,171.37,97.16,171.08,99.57Z"/><path class="cls-3" d="M157.33,74.71c-.73-.81.13.8-.61,0l6.22,0a1.06,1.06,0,0,1,.93.35c5.53,6.06,10.82,12.18,14,19,3.49,7.45-1.55,14.8-12.53,18.17-12.9,4-29-.84-32.6-9.66-1.41-3.42-.64-6.71,1.05-10,2.78-5.35,6.85-10.32,11.2-15.2.65-.72,1.34-1.43,2-2.17a1.3,1.3,0,0,1,1.19-.47c1.2,0,2.39,0,3.6,0,.06.33-.29.53-.5.76a113.19,113.19,0,0,0-11.4,13.9A24.17,24.17,0,0,0,136.05,97c-.8,3.56.64,6.75,4.22,9.48,4.94,3.78,11.45,5.28,19,4.34s12.44-3.87,14.91-8.46c1.39-2.59,1-5.17-.11-7.75a47.12,47.12,0,0,0-6.24-9.73C166,82.51,164,80.25,162,78,161.17,77,159,74.42,157.33,74.71Z"/><path class="cls-5" d="M154.72,63.59c.33.81,1.17,1.13,2.47,1.12,2.31,0,4.62,0,6.93,0,1.09,0,2.09.17,2.36,1s-.6,1.51-2.33,1.52c-2.59,0-5.18,0-7.77,0h-9.56c-1.1,0-2.09-.17-2.38-1s.32-1.27,1.49-1.47a11.72,11.72,0,0,1,2.37-.06c1.35,0,2.21-.29,2.59-1.12A7,7,0,0,1,154.72,63.59Z"/><path class="cls-6" d="M154.72,63.59h-3.83c-.43-1.11-.91-1.36-2.72-1.36-.68,0-1.36,0-2,0-1.11-.07-1.81-.6-1.75-1.29s.76-1.13,1.85-1.13q9.19,0,18.39,0c1.15,0,1.88.51,1.9,1.19s-.73,1.23-1.94,1.25c-2.43,0-4.85,0-7.28,0C155.61,62.23,155,62.54,154.72,63.59Z"/><path class="cls-6" d="M155.34,72.14c-2.87,0-5.74,0-8.61,0-1.53,0-2.35-.45-2.35-1.22s.86-1.24,2.35-1.24q8.73,0,17.46,0c1.49,0,2.35.47,2.35,1.24s-.83,1.22-2.35,1.22C161.24,72.15,158.29,72.14,155.34,72.14Z"/></g></g><g id="ladron"><g id="cara"><path class="cls-7" d="M181.86,87a29.09,29.09,0,0,1-7.72,19.67,25.87,25.87,0,0,1-18.69,8.19C140.86,114.83,129,102.36,129,87s11.83-27.85,26.42-27.85S181.86,71.59,181.86,87Z"/><path class="cls-8" d="M131.63,98.7a20.58,20.58,0,0,1-2.22-7,28.15,28.15,0,0,1,14.07-29.56C159,53.8,178.1,63.6,181.37,81.62a28.93,28.93,0,0,1-1.72,16.43,5.67,5.67,0,0,1-.36.63,3.74,3.74,0,0,1-2.3.3q-22.05,0-44.08,0A1.87,1.87,0,0,1,131.63,98.7Z"/><path class="cls-9" d="M131.63,98.7c.51,0,1-.07,1.54-.07h45.19c.31,0,.62,0,.93,0a.8.8,0,0,1-.39.85c-.56-.51-.94-.26-1.32.29a24.64,24.64,0,0,1-6.67,6.2,34.12,34.12,0,0,1-4.44,2.89,27.54,27.54,0,0,1-10.58,2.55c-3.26.13-7.74.3-10.84-.83a16.07,16.07,0,0,1-4.61-3.15c-1.2-1-2.82-3-4.45-1.89a21.64,21.64,0,0,1-4.06-5.89A1.62,1.62,0,0,1,131.63,98.7Z"/><path class="cls-10" d="M152.41,87.09a7.33,7.33,0,1,1-7.27-7.79A7.52,7.52,0,0,1,152.41,87.09Z"/><path class="cls-11" d="M165.06,94.6c-4.14-.08-7.26-3.56-7.16-8a7.44,7.44,0,0,1,7.56-7.38c4,.09,7.17,3.64,7.07,8A7.44,7.44,0,0,1,165.06,94.6Z"/><path class="cls-12" d="M159.19,105.25c0,.31,0,.62-.37.65s-.44-.31-.53-.63a3.16,3.16,0,0,0-5.47-1.4,2.3,2.3,0,0,0-.66,1.41c0,.35-.16.68-.55.61s-.44-.46-.39-.85a4.1,4.1,0,0,1,5.2-3C158,102.56,159.23,104,159.19,105.25Z"/><path class="cls-13" d="M149.72,84.2a5.62,5.62,0,0,1,.81,3.45,5.52,5.52,0,0,1-5.27,4.59c-1.36,0-2.75.08-3.77-1.15-.34-.63-1.1-.92-1.24-1.71a5.72,5.72,0,0,1,1.64-6.53,5.58,5.58,0,0,1,6.09-.4A4.25,4.25,0,0,1,149.72,84.2Z"/><path class="cls-14" d="M149.72,84.2A6.29,6.29,0,0,0,145,82a5.32,5.32,0,0,0-4.89,6.43,3.36,3.36,0,0,1,.11.94.43.43,0,0,1-.38-.3c-.42-1.5-.06-3,0-4.5a.34.34,0,0,1,.06-.2,11.57,11.57,0,0,1,2.42-2.56,5.51,5.51,0,0,1,7.07,1.41A1.36,1.36,0,0,1,149.72,84.2Z"/><path class="cls-15" d="M141.49,91.09a6,6,0,0,0,6.39,0,5.59,5.59,0,0,0,2.65-3.46c.28,2.13-1.42,4-3.54,4.82-1.84.68-3.38.15-5-.47C141.45,91.8,141.51,91.47,141.49,91.09Z"/><path class="cls-13" d="M169.85,84.19a5.22,5.22,0,0,1,.4,4.75c-1.25,3.49-6.95,4.36-8.62,2.16h0c-.66-.3-.82-1-1.21-1.54l0-.61a4.3,4.3,0,0,1-.38-2.88c.36-1.86,2.43-4.08,4.11-4.26C166.37,81.56,168.47,82,169.85,84.19Z"/><path class="cls-16" d="M169.85,84.19a6.43,6.43,0,0,0-5-2.17,5.33,5.33,0,0,0-4.65,4.81,4.76,4.76,0,0,0,.18,2.12,3.57,3.57,0,0,1-.7-3.3,8.66,8.66,0,0,1,1.56-2.9,2.59,2.59,0,0,1,1.89-1.23,17.14,17.14,0,0,1,2.37-.35,5.17,5.17,0,0,1,4.11,2.13A1.28,1.28,0,0,1,169.85,84.19Z"/><path class="cls-17" d="M161.63,91.1c.85.2,1.52.84,2.47.9a6.55,6.55,0,0,0,6.15-3.06c-.29.86,0,2.15-1.4,2.21-.34,1-1.16,1.18-2,1.43a4.69,4.69,0,0,1-3.22,0,2.08,2.08,0,0,0-.68-.15A1.2,1.2,0,0,1,161.63,91.1Z"/><path class="cls-17" d="M160.42,89.56a7.91,7.91,0,0,1,1.21,1.54C160.52,91.2,160.74,90.14,160.42,89.56Z"/><path class="cls-18" d="M145.1,83.87a2.86,2.86,0,0,1,3,3,3,3,0,0,1-3,3.22,3.11,3.11,0,0,1-3-3.37A3,3,0,0,1,145.1,83.87Z"/><path class="cls-19" d="M168.22,86.89a3,3,0,1,1-3-3.14A3,3,0,0,1,168.22,86.89Z"/><path class="cls-20" d="M143.66,84.85a.86.86,0,0,1,.88.86.78.78,0,0,1-.8.89.75.75,0,0,1-.85-.82A.85.85,0,0,1,143.66,84.85Z"/><path class="cls-21" d="M163.84,86.61a.76.76,0,0,1-.82-.86.78.78,0,0,1,.81-.88.82.82,0,0,1,.84.87A.8.8,0,0,1,163.84,86.61Z"/></g></g></svg>