<svg xmlns="http://www.w3.org/2000/svg" viewBox="0 0 294 360"><defs><style>.cls-1,.cls-44{fill:#1d1d1b;}.cls-1{opacity:0.5;}.cls-2{fill:#f59b47;stroke:#331710;stroke-miterlimit:10;stroke-width:4px;}.cls-3{fill:#f59c47;}.cls-4{fill:#331710;}.cls-5{fill:#f49b47;}.cls-6{fill:#e8b264;}.cls-7{fill:none;}.cls-8{fill:#e6e8ea;}.cls-9{fill:#f9c3ae;}.cls-10{stroke:#010101;stroke-linecap:round;stroke-linejoin:round;stroke-width:0;}.cls-11{fill:#020203;}.cls-12{fill:#020303;}.cls-13{fill:#010202;}.cls-14{fill:#020202;}.cls-15{fill:#c5c5c5;}.cls-16{fill:#c6c6c5;}.cls-17{fill:#c6c5c5;}.cls-18{fill:#c3c3c2;}.cls-19{fill:#c3c2c2;}.cls-20{fill:#c5c4c4;}.cls-21{fill:#c7c7c7;}.cls-22{fill:#c6c6c6;}.cls-23{fill:#fefefe;}.cls-24{fill:#fffefe;}.cls-25{fill:#faf9fa;}.cls-26{fill:#f6f6f6;}.cls-27{fill:#c8c7c7;}.cls-28{fill:#fff;}.cls-29{fill:#f2af9a;}.cls-30{fill:#111;}.cls-31{fill:#f9c4af;}.cls-32{fill:#f7c5b0;}.cls-33{fill:#f8c5af;}.cls-34{fill:#160d0b;}.cls-35{fill:#fdfdfd;}.cls-36{fill:#decfcb;}.cls-37{fill:#e3cdc5;}.cls-38{fill:#decfca;}.cls-39{fill:#e2cdc8;}.cls-40{fill:#030404;}.cls-41{fill:#030303;}.cls-42{fill:#efefef;}.cls-43{fill:#f0f0f0;}</style></defs><title>escena7</title><g id="fondo"><rect class="cls-1" width="294" height="360" rx="14.17"/></g><g id="base_horca" data-name="base horca"><rect class="cls-2" x="11.36" y="325.14" width="259.46" height="17.33" rx="7.29"/><rect class="cls-2" x="30.99" y="21.87" width="143.46" height="14.42" rx="4.95"/><rect class="cls-2" x="-115.9" y="169.95" width="310.38" height="17.33" rx="7.98" transform="translate(-139.33 217.9) rotate(-90)"/><g id="Capa_3" data-name="Capa 3"><path class="cls-3" d="M157.32,27.32c0,5.77.05,23.67.08,29.45,0,.35-.17.46-.74.49-3.13.12-3.13.13-3.13-1.86,0-5.32,0-22.76,0-28.08Z"/><path class="cls-4" d="M182.9,97.72c-.19-2.8-1.59-5.45-3.13-8a92.5,92.5,0,0,0-11.69-15c-.32-.35-.42-.54.19-.84,2.46-1.22,3-3.28,1.24-4.94-.35-.33-.34-.51,0-.84,1.38-1.36,1.41-2.76,0-4.11-.4-.39-.27-.58.07-.91,2.29-2.25.24-5.18-3.92-5.67a17.49,17.49,0,0,0-3-.08c-1,0-1.33-.1-1.32-.8.05-5.52,0-23.17,0-28.68,0-1-.6-1.56-1.72-1.66a2.09,2.09,0,0,0-2.31,1.21c-.48.37-.32,13-.32,13.37q0,7.44,0,14.88a4.64,4.64,0,0,1,0,.83c0,.17,0,.39-.33.46a4.94,4.94,0,0,1-2.23,0c-.62-.13-.42-.55-.47-.86a5.14,5.14,0,0,1,0-.68q0-7.34,0-14.65c0-.42.1-13-.38-13.37a2.09,2.09,0,0,0-2.31-1.21c-1.09.1-1.68.64-1.72,1.58v.46c0,5,0,22.05,0,27,0,.67.44,1.52-.2,2s-1.89.07-2.88.11h-.23c-4.9.23-7.37,3.29-4.72,5.89.29.29.26.44,0,.71-1.45,1.38-1.46,2.8-.06,4.18.34.34.35.51,0,.84-1.64,1.57-1.27,3.69,1,4.79.86.43.75.7.3,1.19-5.12,5.61-9.89,11.33-13,17.55-1.56,3.16-2.39,6.37-1.18,9.63,2.65,7.08,9.55,11.62,20.65,13.54a20.77,20.77,0,0,1,3.19.45h6c.06-.11.21-.12.38-.13a34.37,34.37,0,0,0,15.75-4.74C180.42,107.48,183.24,103,182.9,97.72Zm-11.82,1.85c-.62,5.17-8.47,9.42-16.63,9-7.43-.42-13-3.56-14.44-8.19-.69-2.16.11-4.23,1.18-6.25,3.38-6.34,8.5-12.14,13.9-17.85a5.47,5.47,0,0,1,1.63-1.53c1.09.67.36-1,.61,0-1.09.77.44,3.54,1.3,4.5A84.45,84.45,0,0,1,169,92.73C170.27,94.93,171.37,97.16,171.08,99.57Z"/><path class="cls-3" d="M157.33,74.71c-.73-.81.13.8-.61,0l6.22,0a1.06,1.06,0,0,1,.93.35c5.53,6.06,10.82,12.18,14,19,3.49,7.45-1.55,14.8-12.53,18.17-12.9,4-29-.84-32.6-9.66-1.41-3.42-.64-6.71,1.05-10,2.78-5.35,6.85-10.32,11.2-15.2.65-.72,1.34-1.43,2-2.17a1.3,1.3,0,0,1,1.19-.47c1.2,0,2.39,0,3.6,0,.06.33-.29.53-.5.76a113.19,113.19,0,0,0-11.4,13.9A24.17,24.17,0,0,0,136.05,97c-.8,3.56.64,6.75,4.22,9.48,4.94,3.78,11.45,5.28,19,4.34s12.44-3.87,14.91-8.46c1.39-2.59,1-5.17-.11-7.75a47.12,47.12,0,0,0-6.24-9.73C166,82.51,164,80.25,162,78,161.17,77,159,74.42,157.33,74.71Z"/><path class="cls-5" d="M154.72,63.59c.33.81,1.17,1.13,2.47,1.12,2.31,0,4.62,0,6.93,0,1.09,0,2.09.17,2.36,1s-.6,1.51-2.33,1.52c-2.59,0-5.18,0-7.77,0h-9.56c-1.1,0-2.09-.17-2.38-1s.32-1.27,1.49-1.47a11.72,11.72,0,0,1,2.37-.06c1.35,0,2.21-.29,2.59-1.12A7,7,0,0,1,154.72,63.59Z"/><path class="cls-6" d="M154.72,63.59h-3.83c-.43-1.11-.91-1.36-2.72-1.36-.68,0-1.36,0-2,0-1.11-.07-1.81-.6-1.75-1.29s.76-1.13,1.85-1.13q9.19,0,18.39,0c1.15,0,1.88.51,1.9,1.19s-.73,1.23-1.94,1.25c-2.43,0-4.85,0-7.28,0C155.61,62.23,155,62.54,154.72,63.59Z"/><path class="cls-6" d="M155.34,72.14c-2.87,0-5.74,0-8.61,0-1.53,0-2.35-.45-2.35-1.22s.86-1.24,2.35-1.24q8.73,0,17.46,0c1.49,0,2.35.47,2.35,1.24s-.83,1.22-2.35,1.22C161.24,72.15,158.29,72.14,155.34,72.14Z"/></g></g><g id="ladron"><g id="piernaI"><path class="cls-7" d="M147.47,247.33c-.17-.94-.16-1.89-.42-2.82-.07-.28-.11-.57-.17-.85s0-.28-.34-.16a7.83,7.83,0,0,1-2.52.55l0,0,.11,0a6.83,6.83,0,0,0,2.74-1.11.63.63,0,0,0,.3-.52,1.05,1.05,0,0,0-.6-.74,9,9,0,0,0-3.11-.81,1.61,1.61,0,0,1-.8.83c0,.28-.18.44-.62.53a6.94,6.94,0,0,1-1.88.18,2,2,0,0,1-.76-.18c-1.25,0-1.88-.36-2.23-1.1a8.47,8.47,0,0,0-.86.25,2.31,2.31,0,0,0-1.07.7c-.27.37-.07.84.45,1.14a10.39,10.39,0,0,0,1.16.54.4.4,0,0,1-.29,0,7,7,0,0,1-.77-.26c-.15-.07-.24-.07-.27.1a4.15,4.15,0,0,1-.23.76c-.15.44-.4.84-.53,1.28a.69.69,0,0,1-.07.15c-.27.47-.54.94-.82,1.4-.07.11-.05.15.13.14a25.17,25.17,0,0,1,3.13,0,22.67,22.67,0,0,1,4.13.67,13.87,13.87,0,0,1,3.59,1.42,3.45,3.45,0,0,1,.76.5,5.5,5.5,0,0,1-.6-.28,15.44,15.44,0,0,0-2.91-1.14,24.17,24.17,0,0,0-5.85-.75,23.06,23.06,0,0,0-5.12.53,15.16,15.16,0,0,0-3.65,1.19,10.25,10.25,0,0,0-2.53,1.72,3.9,3.9,0,0,0-1.18,1.76,3,3,0,0,0,.13,2.4,2.89,2.89,0,0,0,.92,1,7.56,7.56,0,0,0,2.73,1,30.35,30.35,0,0,0,4.87.51,68.93,68.93,0,0,0,10.06-.24,10.66,10.66,0,0,0,4.05-1.14,2.82,2.82,0,0,0,1.43-1.83,3.58,3.58,0,0,0,.08-1,26.92,26.92,0,0,0-.22-3.35C147.62,249.28,147.64,248.3,147.47,247.33Z"/><path d="M148.78,251.32c-.14-.66-.13-1.33-.31-2s-.15-1.09-.31-1.63-.22-1.18-.38-1.77-.34-1.16-.49-1.74a1.47,1.47,0,0,0-.2-.55c-.07-.12-.2-.3,0-.41a4.16,4.16,0,0,0,.39-.32.84.84,0,0,0,.12-1.24,3.75,3.75,0,0,0-1.46-.89,12.09,12.09,0,0,0-2.55-.57c0-.1,0-.2,0-.31l-6.75,0c0,.23.08.44.13.63a5.06,5.06,0,0,0-2,.89.88.88,0,0,0,0,1.55c.14.11.22.21.16.39a11.46,11.46,0,0,0-.46,1.09.7.7,0,0,1-.08.2,17.73,17.73,0,0,0-.94,1.84,1.47,1.47,0,0,1-.41.7c-.18.13-.57.09-.87.12l-.15,0a17.91,17.91,0,0,0-6.18,1.83,8.46,8.46,0,0,0-1.86,1.23,14.58,14.58,0,0,0-1,1,4.45,4.45,0,0,0-.85,1.44,3.66,3.66,0,0,0-.14,1.58,3,3,0,0,0,1,1.91,6.37,6.37,0,0,0,2.57,1.38,19.56,19.56,0,0,0,4.08.71c.51.05,1,.08,1.52.11,1.52.08,3.05.1,4.58.09,1.72,0,3.44,0,5.15-.19.57-.05,1.13-.11,1.7-.19a11.53,11.53,0,0,0,4.69-1.47,3.54,3.54,0,0,0,1.44-1.77,2.41,2.41,0,0,0,.12-1.07A17.42,17.42,0,0,0,148.78,251.32Zm-.86,3.26a2.82,2.82,0,0,1-1.43,1.83,10.66,10.66,0,0,1-4.05,1.14,68.93,68.93,0,0,1-10.06.24,30.35,30.35,0,0,1-4.87-.51,7.56,7.56,0,0,1-2.73-1,2.89,2.89,0,0,1-.92-1,3,3,0,0,1-.13-2.4,3.9,3.9,0,0,1,1.18-1.76,10.25,10.25,0,0,1,2.53-1.72,15.16,15.16,0,0,1,3.65-1.19,23.06,23.06,0,0,1,5.12-.53,24.17,24.17,0,0,1,5.85.75,15.44,15.44,0,0,1,2.91,1.14,5.5,5.5,0,0,0,.6.28,3.45,3.45,0,0,0-.76-.5,13.87,13.87,0,0,0-3.59-1.42,22.67,22.67,0,0,0-4.13-.67,25.17,25.17,0,0,0-3.13,0c-.18,0-.2,0-.13-.14.28-.46.55-.93.82-1.4a.69.69,0,0,0,.07-.15c.13-.44.38-.84.53-1.28a4.15,4.15,0,0,0,.23-.76c0-.17.12-.17.27-.1a7,7,0,0,0,.77.26.4.4,0,0,0,.29,0,10.39,10.39,0,0,1-1.16-.54c-.52-.3-.72-.77-.45-1.14a2.31,2.31,0,0,1,1.07-.7,8.47,8.47,0,0,1,.86-.25c.35.74,1,1.08,2.23,1.1a2,2,0,0,0,.76.18,6.94,6.94,0,0,0,1.88-.18c.44-.09.61-.25.62-.53a1.61,1.61,0,0,0,.8-.83,9,9,0,0,1,3.11.81,1.05,1.05,0,0,1,.6.74.63.63,0,0,1-.3.52,6.83,6.83,0,0,1-2.74,1.11l-.11,0,0,0a7.83,7.83,0,0,0,2.52-.55c.31-.12.31,0,.34.16s.1.57.17.85c.26.93.25,1.88.42,2.82s.15,1.95.31,2.92a26.92,26.92,0,0,1,.22,3.35A3.58,3.58,0,0,1,147.92,254.58Z"/><path class="cls-8" d="M147.32,247.35c-.16-.93-.16-1.89-.41-2.82-.08-.28-.11-.57-.18-.85s0-.28-.34-.16a7.72,7.72,0,0,1-2.52.55s-.14,0-.15,0,.07,0,.12-.05h0l.11,0a6.83,6.83,0,0,0,2.74-1.11c.18-.15.33-.35.3-.51a1.06,1.06,0,0,0-.61-.75,10.49,10.49,0,0,0-3.85-.89c-.16,0-.17,0-.15.13s.09.43.11.65c0,.38-.13.55-.63.66a6.94,6.94,0,0,1-1.88.18,1.83,1.83,0,0,1-1-.3c-.42-.27-.38-.67-.51-1s-.16-.25-.43-.2a13.61,13.61,0,0,0-1.93.48,2.21,2.21,0,0,0-1.07.7c-.27.37-.08.84.45,1.14a8.87,8.87,0,0,0,1.16.54.43.43,0,0,1-.3,0,6.81,6.81,0,0,1-.76-.26c-.15-.06-.25-.06-.28.1a5.07,5.07,0,0,1-.22.76c-.15.44-.4.85-.53,1.28a1.19,1.19,0,0,1-.08.16l-.81,1.39c-.07.11-.05.15.13.14a29.52,29.52,0,0,1,3.12,0,22.53,22.53,0,0,1,4.13.67,13.94,13.94,0,0,1,3.6,1.42,4.54,4.54,0,0,1,.76.5,5.67,5.67,0,0,1-.61-.28,14.44,14.44,0,0,0-2.9-1.13,24.31,24.31,0,0,0-5.85-.76,23,23,0,0,0-5.12.53,14.88,14.88,0,0,0-3.65,1.19,10.25,10.25,0,0,0-2.53,1.72,3.84,3.84,0,0,0-1.19,1.76,3.09,3.09,0,0,0,.13,2.4,2.92,2.92,0,0,0,.93,1,7.51,7.51,0,0,0,2.72,1,30.47,30.47,0,0,0,4.88.51,68.76,68.76,0,0,0,10-.24,10.49,10.49,0,0,0,4.05-1.14,2.87,2.87,0,0,0,1.44-1.83,3.58,3.58,0,0,0,.08-1,29.13,29.13,0,0,0-.22-3.35C147.48,249.3,147.49,248.32,147.32,247.35Z"/><path d="M146.92,240.67l.62-20.53a3.78,3.78,0,0,0-1.26-2.65,13.55,13.55,0,0,0,.64-2.88l6.74-25.87c.68-5.3-3.89-6-9.51-6.65h0c-5.62-.63-9-1.2-9.66,4.1L132.7,213a10.46,10.46,0,0,0,.2,4.95c-.87.63-1.28,1.65-1.09,3.39l3.5,20.43c0,.13,0,.24.05.37l11.63-.09A11.28,11.28,0,0,0,146.92,240.67Z"/></g><g id="piernaD"><path class="cls-7" d="M168.05,248.19c.11-.94,0-1.89.24-2.84.06-.28.08-.57.12-.86s0-.28.34-.18a7.92,7.92,0,0,0,2.55.4l0,0-.12,0a6.79,6.79,0,0,1-2.8-.94c-.19-.14-.34-.33-.32-.49a1,1,0,0,1,.55-.79,9,9,0,0,1,3.05-1,1.67,1.67,0,0,0,.85.78c0,.28.21.42.65.49a7,7,0,0,0,1.89.07,1.93,1.93,0,0,0,.75-.23c1.24-.1,1.86-.47,2.16-1.23.29.06.59.12.87.2a2.21,2.21,0,0,1,1.11.63c.29.36.13.84-.38,1.17a9.15,9.15,0,0,1-1.12.6.4.4,0,0,0,.29,0c.25-.1.51-.18.75-.3s.24-.09.28.08a4.11,4.11,0,0,0,.27.74c.17.43.45.82.61,1.25a.55.55,0,0,0,.08.15c.3.45.59.9.9,1.34.07.11,0,.14-.12.15a27,27,0,0,0-3.12.22,22.25,22.25,0,0,0-4.09.91,13.89,13.89,0,0,0-3.5,1.64,4.45,4.45,0,0,0-.73.54,4.19,4.19,0,0,0,.59-.32,14.6,14.6,0,0,1,2.83-1.3,23.91,23.91,0,0,1,5.79-1.1,23.29,23.29,0,0,1,5.15.21,15,15,0,0,1,3.71,1,10.08,10.08,0,0,1,2.63,1.57,3.8,3.8,0,0,1,1.29,1.68,3.06,3.06,0,0,1,0,2.41,2.75,2.75,0,0,1-.86,1,7.38,7.38,0,0,1-2.66,1.16,29.88,29.88,0,0,1-4.83.81,70.45,70.45,0,0,1-10.06.36,10.58,10.58,0,0,1-4.11-.89,2.86,2.86,0,0,1-1.54-1.74,3.63,3.63,0,0,1-.14-1,28.81,28.81,0,0,1,0-3.35C168,250.15,167.94,249.17,168.05,248.19Z"/><path d="M166.85,255A2.59,2.59,0,0,0,167,256a3.54,3.54,0,0,0,1.54,1.68,11.69,11.69,0,0,0,4.77,1.18q.85.08,1.71.09c1.71,0,3.43,0,5.15-.12,1.53-.08,3-.19,4.56-.37.51-.05,1-.12,1.52-.19a19.43,19.43,0,0,0,4-1,6.13,6.13,0,0,0,2.48-1.53,3,3,0,0,0,.89-2,3.5,3.5,0,0,0-.24-1.57,4.39,4.39,0,0,0-.92-1.38,11.6,11.6,0,0,0-1.11-1,8.49,8.49,0,0,0-1.93-1.12,17.94,17.94,0,0,0-6.28-1.45h-.15c-.3,0-.69.05-.88-.07a1.59,1.59,0,0,1-.45-.68,16.13,16.13,0,0,0-1-1.77.7.7,0,0,1-.08-.2c-.12-.37-.38-.7-.53-1.06-.07-.18,0-.28.14-.39a.89.89,0,0,0-.06-1.56,5.09,5.09,0,0,0-2-.77,5.3,5.3,0,0,0,.09-.63l-6.73.36a3,3,0,0,0,0,.31,11.31,11.31,0,0,0-2.51.73,3.71,3.71,0,0,0-1.41,1,.84.84,0,0,0,.2,1.23,3.08,3.08,0,0,0,.41.3c.19.11.06.29,0,.41a2.1,2.1,0,0,0-.17.56c-.11.6-.25,1.19-.38,1.77s-.13,1.2-.27,1.79-.09,1.1-.21,1.64-.09,1.34-.2,2A19,19,0,0,0,166.85,255Zm1-.48a28.81,28.81,0,0,1,0-3.35c.1-1,0-2,.14-2.94s0-1.89.24-2.84c.06-.28.08-.57.12-.86s0-.28.34-.18a7.92,7.92,0,0,0,2.55.4l0,0-.12,0a6.79,6.79,0,0,1-2.8-.94c-.19-.14-.34-.33-.32-.49a1,1,0,0,1,.55-.79,9,9,0,0,1,3.05-1,1.67,1.67,0,0,0,.85.78c0,.28.21.42.65.49a7,7,0,0,0,1.89.07,1.93,1.93,0,0,0,.75-.23c1.24-.1,1.86-.47,2.16-1.23.29.06.59.12.87.2a2.21,2.21,0,0,1,1.11.63c.29.36.13.84-.38,1.17a9.15,9.15,0,0,1-1.12.6.4.4,0,0,0,.29,0c.25-.1.51-.18.75-.3s.24-.09.28.08a4.11,4.11,0,0,0,.27.74c.17.43.45.82.61,1.25a.55.55,0,0,0,.08.15c.3.45.59.9.9,1.34.07.11,0,.14-.12.15a27,27,0,0,0-3.12.22,22.25,22.25,0,0,0-4.09.91,13.89,13.89,0,0,0-3.5,1.64,4.45,4.45,0,0,0-.73.54,4.19,4.19,0,0,0,.59-.32,14.6,14.6,0,0,1,2.83-1.3,23.91,23.91,0,0,1,5.79-1.1,23.29,23.29,0,0,1,5.15.21,15,15,0,0,1,3.71,1,10.08,10.08,0,0,1,2.63,1.57,3.8,3.8,0,0,1,1.29,1.68,3.06,3.06,0,0,1,0,2.41,2.75,2.75,0,0,1-.86,1,7.38,7.38,0,0,1-2.66,1.16,29.88,29.88,0,0,1-4.83.81,70.45,70.45,0,0,1-10.06.36,10.58,10.58,0,0,1-4.11-.89,2.86,2.86,0,0,1-1.54-1.74A3.63,3.63,0,0,1,167.89,254.48Z"/><path class="cls-8" d="M168.2,248.2a27.42,27.42,0,0,1,.24-2.84c.06-.28.07-.57.12-.86,0-.13,0-.28.33-.17a7.69,7.69,0,0,0,2.55.39c.05,0,.15,0,.15,0s-.07,0-.12,0h0a.45.45,0,0,0-.11,0,6.89,6.89,0,0,1-2.8-.95c-.19-.14-.35-.33-.33-.49a1,1,0,0,1,.56-.78,10.43,10.43,0,0,1,3.79-1.12c.15,0,.17,0,.16.12s-.06.43-.07.65c0,.38.16.55.67.63a7.39,7.39,0,0,0,1.88.06,1.82,1.82,0,0,0,1-.36c.4-.3.33-.69.44-1s.15-.25.42-.22a14.11,14.11,0,0,1,2,.36,2.16,2.16,0,0,1,1.1.64c.3.35.13.83-.37,1.16a10,10,0,0,1-1.13.61.39.39,0,0,0,.29,0,5.58,5.58,0,0,0,.75-.3c.15-.08.24-.08.28.08a5.17,5.17,0,0,0,.27.75c.18.42.45.81.61,1.24a1.09,1.09,0,0,0,.08.15l.9,1.35c.08.1.06.14-.12.14a27.26,27.26,0,0,0-3.12.22,23,23,0,0,0-4.08.92,13.94,13.94,0,0,0-3.51,1.63,5.11,5.11,0,0,0-.73.54,4.82,4.82,0,0,0,.6-.31,14.54,14.54,0,0,1,2.82-1.31,24.25,24.25,0,0,1,10.94-.89,15.54,15.54,0,0,1,3.72,1,10.39,10.39,0,0,1,2.63,1.56,3.93,3.93,0,0,1,1.29,1.68,3.1,3.1,0,0,1,0,2.41,3,3,0,0,1-.86,1,7.73,7.73,0,0,1-2.66,1.17,31.33,31.33,0,0,1-4.84.8,68.93,68.93,0,0,1-10,.36,10.54,10.54,0,0,1-4.11-.89,2.88,2.88,0,0,1-1.55-1.74,3.49,3.49,0,0,1-.13-1,29,29,0,0,1,0-3.36C168.15,250.16,168.08,249.19,168.2,248.2Z"/><path d="M168.19,241.51l-1.85-20.45a3.75,3.75,0,0,1,1.1-2.72,13.64,13.64,0,0,1-.81-2.84l-8.29-25.42c-1-5.25,3.53-6.23,9.1-7.21h0c5.57-1,8.89-1.74,9.88,3.51l3.4,26.66a10.56,10.56,0,0,1,.11,5c.9.58,1.37,1.57,1.29,3.32l-2.27,20.6,0,.37-11.61.61A12.44,12.44,0,0,1,168.19,241.51Z"/></g><g id="brazoI"><path class="cls-9" d="M78.37,179.69c.28-.35.37-.06.53,0,.51.13,1,0,1.46-.75a21,21,0,0,0,2.07-4.1c.09-.2.07-.48.36-.55a4.16,4.16,0,0,1,.29-1l-4-1.48-2.66-1a12.59,12.59,0,0,1-1.08,2,36.43,36.43,0,0,0-1.67,3.89c-.27.75.09,1.14.69,1.5s1.58.58,2.26,1a1.31,1.31,0,0,0,1.39.18C78.31,179.29,78.4,179.38,78.37,179.69Z"/><path class="cls-10" d="M97.67,141.56l38-15.23c4.24-2.15,1.71-5.22-.43-9.46h0c-2.15-4.23-2-5.82-6.26-3.67L93,134.39"/><path class="cls-10" d="M83.16,173.36l20.08-32.07c2-3.9-1.22-4.69-4.74-6.52h0c-3.52-1.84-4.17-3-6.2.85L76.43,170.84"/></g><g id="brazoD"><path class="cls-9" d="M232.56,180.36c-.28-.35-.37-.06-.53,0-.51.13-1,0-1.46-.74a21.61,21.61,0,0,1-2.07-4.1c-.09-.21-.07-.48-.36-.56a4.16,4.16,0,0,0-.29-1l4-1.48c.88-.33,1.77-.64,2.66-1a13.51,13.51,0,0,0,1.08,2,36.28,36.28,0,0,1,1.67,3.88c.27.75-.09,1.14-.69,1.5s-1.58.58-2.26,1.05a1.33,1.33,0,0,1-1.39.19C232.62,180,232.53,180.06,232.56,180.36Z"/><path class="cls-10" d="M213.26,142.23l-38-15.23c-4.24-2.14-1.71-5.22.43-9.45h0c2.15-4.24,2-5.83,6.26-3.68l36,21.19"/><path class="cls-10" d="M227.77,174,207.69,142c-2-3.89,1.22-4.69,4.74-6.52h0c3.52-1.84,4.17-3,6.2.85l15.87,35.22"/></g><g id="tronco"><path class="cls-11" d="M130.84,137.54c-.07-2.77-.13-5.54-.22-8.31-.05-1.34.12-1.67.68-1.67q23.73.09,47.45,0c.85,0,1.14.45,1,2.58-.17,2.47.06,5-.26,7.49a1.27,1.27,0,0,1-.55.65,2.55,2.55,0,0,1-1.33.17H132.79a4,4,0,0,1-1.23-.12C131.28,138.3,131,138.1,130.84,137.54Z"/><path d="M161.28,188.94l-14.43-.39c-3.73,0-13.61-3-13.61-6.75v-2.36c0-3.73-2.44-10.5,1.29-10.5l40.36-1.45c3.73,0,2.62,9.8,2.62,13.53l-.67,1.55C176.84,186.3,165,188.94,161.28,188.94Z"/><path class="cls-12" d="M132.27,167v-3a1.35,1.35,0,0,1,1.13-.34,5.88,5.88,0,0,1,1,0h41.17c.44,0,.89,0,1.33,0s1-.09,1.3.38l-.19,4.19c-.42.49-1,.35-1.51.37-.31,0-.61,0-.92,0H134.54a4.34,4.34,0,0,1-.72,0C132.47,168.61,132.47,168.61,132.27,167Z"/><path class="cls-13" d="M179.28,144l-.2,4.06a1.55,1.55,0,0,1-1.26.31H132.6a2.11,2.11,0,0,1-1.38-.31c0-1.37,0-2.74,0-4.11a1.24,1.24,0,0,1,.75-.28,4.84,4.84,0,0,1,.93-.05h44.94a4.35,4.35,0,0,1,.51,0A1.37,1.37,0,0,1,179.28,144Z"/><path class="cls-13" d="M131.86,158.14l-.22-4a1.56,1.56,0,0,1,1.26-.32h44.66c1.25,0,1.32.13,1.15,1.81l-.25,2.56a1.47,1.47,0,0,1-1.15.34q-22,0-44.11,0C132.73,158.49,132.23,158.58,131.86,158.14Z"/><path class="cls-14" d="M132.67,175.53c0-.44,0-.88,0-1.33.54-.61,1.27-.25,1.9-.39q20.66,0,41.32,0c.58.09,1.23-.14,1.74.35a20.05,20.05,0,0,1-.24,4.24.75.75,0,0,1-.74.25c-4.48-.22-9-.08-13.44-.09-9,0-18,0-27,0a9,9,0,0,0-2.25.13,1.22,1.22,0,0,1-1.15-.32c-.4-.47-.13-1-.1-1.49A3.61,3.61,0,0,0,132.67,175.53Z"/><path class="cls-15" d="M132.88,178.22a5.6,5.6,0,0,0,2.34.07h39.63c.85,0,1.71.07,2.56.1a21.69,21.69,0,0,1-.15,3.86c0,.56-.33.73-.81.73-.92,0-1.84,0-2.77,0-13.13,0-26.26,0-39.39,0-1,0-1.36-.32-1.24-1.32A21.24,21.24,0,0,1,132.88,178.22Z"/><path class="cls-16" d="M178.71,155.6c-.08-1.56-.08-1.55-1.6-1.55H133.06a3.1,3.1,0,0,0-1.42.05l0-.24a1.32,1.32,0,0,1,.93-.3,8.58,8.58,0,0,1,1.34,0h42.21c1.19,0,1.37-.19,1.42-1.43,0-.86.14-1.72.24-2.57.07-.64-.1-1-.76-.92-.2,0-.41,0-.61,0H134.17c-1.85,0-1.85,0-1.65,2a4.78,4.78,0,0,1,0,.76,11.3,11.3,0,0,1-.08,1.16c-.12.59-.4.71-.84.29-.31-1.56,0-3.19-.42-4.75a4.9,4.9,0,0,0,1.83,0q22.2,0,44.41,0a4,4,0,0,0,1.62-.05c-.16,2.24-.26,4.49-.2,6.75A1.11,1.11,0,0,1,178.71,155.6Z"/><path class="cls-17" d="M131.86,158.14c.72,0,1.43,0,2.15,0h43.83l.62,0c0,.22,0,.45,0,.67-.26.27-.52.52-.8.76s-.48.18-.64-.14a1,1,0,0,0-1-.69H135c-1.81,0-1.8,0-1.65,1.89,0,.61.16,1.21.19,1.82a2,2,0,0,1-.28,1.54l-1,0a3.44,3.44,0,0,1-.21-1.56C132,161,131.92,159.59,131.86,158.14Z"/><path class="cls-18" d="M135.06,113.71c-.62,0-1.25,0-1.85,0-1.47.16-2.22-.17-2.05-1.25,2.94-.88,6.11-1.27,9.13-2,.53-.12,1-.18,1-.63l3.47,1.72c-.28.51-1,.6-1.62.7C140.44,112.73,137.84,113.48,135.06,113.71Z"/><path class="cls-19" d="M166.63,111.6l3.05-1.55c.45.75,1.6.54,2.39.77,2.34.66,4.82,1.11,7.24,1.65.1,1.34-1.07,1.43-2.52,1.24-2.63-.27-5.14-.85-7.69-1.34A6.13,6.13,0,0,1,166.63,111.6Z"/><path class="cls-16" d="M177.65,174.16l-1.65,0a47.27,47.27,0,0,1,.2-5.05,1,1,0,0,1,.41-.71l1.42-.08C177.81,170.23,178,172.21,177.65,174.16Z"/><path class="cls-15" d="M134.51,174.11l-1.82.09-.42-7.21c0,1,.4,1.54,1.42,1.36.62.91.4,2,.54,3S134.43,173.19,134.51,174.11Z"/><path class="cls-20" d="M177.26,159.7c.43-.23.43-1.13,1.19-.87.13,1.76-.24,3.5-.23,5.25L177,164A5.4,5.4,0,0,1,177.26,159.7Z"/><path class="cls-21" d="M131.85,143.9l-.64,0c-.33-1.94-.15-3.91-.37-5.85l.59.07c.08.08.2.14.21.23A13,13,0,0,1,131.85,143.9Z"/><path class="cls-22" d="M179.28,144l-.81-.07a13.27,13.27,0,0,1,.61-5.77l.42,0C179.61,140.08,179.35,142,179.28,144Z"/><path class="cls-23" d="M132.88,178.22a17.52,17.52,0,0,1,.17,3.47c-.33-.19-.62-.54-.45-.86a2.65,2.65,0,0,0-.15-2.42c-.39-1,.5-1.89.22-2.88A11,11,0,0,1,132.88,178.22Z"/><path class="cls-22" d="M131.64,152.79c.26,0,.65.26.61-.34,0-.32,0-.65,0-1,.85.69.52,1.53.27,2.35l-.91,0Z"/><path class="cls-24" d="M131.17,118.09a6.22,6.22,0,0,1,1-.14q23.16,0,46.31,0a6.41,6.41,0,0,1,.95.14,2.72,2.72,0,0,1,.27,1.12c0,2.5.17,5,.13,7.51a1.31,1.31,0,0,1-.22.76,2.23,2.23,0,0,1-1,.08H131.9c-1.3,0-1.35,0-1.26-2.14.07-1.89.24-3.77.21-5.67A3.91,3.91,0,0,1,131.17,118.09Z"/><path class="cls-21" d="M132.44,118a29.1,29.1,0,0,1-.22,4.94c-.07.63.15.73.64.68a4.51,4.51,0,0,1,.52,0h45.24a.39.39,0,0,1,.51,0c-.36.31-.79.17-1.18.17H133c-1.84,0-1.84,0-1.75-2,0-1,.14-1.94.09-2.9S131.58,117.75,132.44,118Z"/><path class="cls-25" d="M166.63,111.6c2.44.43,4.92.78,7.31,1.32,1.23.27,2.67.14,3.7.79H160.79Z"/><path class="cls-26" d="M133.7,113.71c2.78-.79,5.79-1.13,8.71-1.65a19.68,19.68,0,0,0,2.11-.46l6,2.11Z"/><path class="cls-27" d="M179.13,123.68l-.51,0c.19-1.88-.36-3.74-.13-5.62.36-.11.59,0,.59.43C179.09,120.2,179.11,121.94,179.13,123.68Z"/><path class="cls-28" d="M179.08,138.14c-.2,1.92-.41,3.85-.61,5.77l-8.53,0H132.77c-.31,0-.61,0-.92,0-.18-1.91-.12-3.84-.42-5.75l1.85-.05h44.57C178.26,138.1,178.67,138.13,179.08,138.14Z"/><path class="cls-28" d="M134.51,174.11a.88.88,0,0,1-.42-.67c-.11-1.7-.26-3.39-.4-5.09.28,0,.55,0,.82,0H175.8c.27,0,.54,0,.81,0-.37,1.56-.1,3.18-.39,4.75-.06.34,0,.71-.22,1l-13.86,0Z"/><path class="cls-28" d="M177.26,159.7A22.68,22.68,0,0,0,177,164a7.35,7.35,0,0,1-.82.07H134c-.24,0-.47,0-.71-.05a25.25,25.25,0,0,0-.36-4.26c-.19-1.23-.09-1.36,1.1-1.36q21,0,41.93,0C177,158.35,177.43,158.6,177.26,159.7Z"/><path class="cls-23" d="M155.23,178.5c6.53,0,13.07,0,19.61,0,.7,0,1,0,1,1-.15,2.15.23,2-2,2-9,0-18-.07-27,.08-3.7.07-7.39.06-11.08.17-.81,0-1.15-.23-1-1.08a1.69,1.69,0,0,0,0-.32c-.07-1.82-.07-1.82,1.74-1.82Z"/><path class="cls-28" d="M132.52,153.83c-.22-.77.14-1.6-.27-2.35-.07-.88-.11-1.78-.23-2.66-.06-.46.09-.56.46-.52H133q22.07,0,44.13,0c.75,0,1.08.09,1,1-.16,1.17-.16,2.36-.24,3.53-.05.69-.3,1-1.08,1Q154.64,153.82,132.52,153.83Z"/><path class="cls-11" d="M130.89,117.79c-.07-1.19-.12-2.37-.21-3.55-.05-.57.12-.72.68-.71q23.71,0,47.44,0c.86,0,1.15.2,1,1.11a21.56,21.56,0,0,1-.25,3.2,1.16,1.16,0,0,1-.55.28,5.91,5.91,0,0,1-1.33.07H132.85a8.45,8.45,0,0,1-1.23-.06A1,1,0,0,1,130.89,117.79Z"/></g><g id="cara"><path class="cls-29" d="M181.86,87a29.09,29.09,0,0,1-7.72,19.67,25.87,25.87,0,0,1-18.69,8.19C140.86,114.83,129,102.36,129,87s11.83-27.85,26.42-27.85S181.86,71.59,181.86,87Z"/><path class="cls-30" d="M131.63,98.7a20.58,20.58,0,0,1-2.22-7,28.15,28.15,0,0,1,14.07-29.56C159,53.8,178.1,63.6,181.37,81.62a28.93,28.93,0,0,1-1.72,16.43,5.67,5.67,0,0,1-.36.63,3.74,3.74,0,0,1-2.3.3q-22.05,0-44.08,0A1.87,1.87,0,0,1,131.63,98.7Z"/><path class="cls-31" d="M131.63,98.7c.51,0,1-.07,1.54-.07h45.19c.31,0,.62,0,.93,0a.8.8,0,0,1-.39.85c-.56-.51-.94-.26-1.32.29a24.64,24.64,0,0,1-6.67,6.2,34.12,34.12,0,0,1-4.44,2.89,27.54,27.54,0,0,1-10.58,2.55c-3.26.13-7.74.3-10.84-.83a16.07,16.07,0,0,1-4.61-3.15c-1.2-1-2.82-3-4.45-1.89a21.64,21.64,0,0,1-4.06-5.89A1.62,1.62,0,0,1,131.63,98.7Z"/><path class="cls-32" d="M152.41,87.09a7.33,7.33,0,1,1-7.27-7.79A7.52,7.52,0,0,1,152.41,87.09Z"/><path class="cls-33" d="M165.06,94.6c-4.14-.08-7.26-3.56-7.16-8a7.44,7.44,0,0,1,7.56-7.38c4,.09,7.17,3.64,7.07,8A7.44,7.44,0,0,1,165.06,94.6Z"/><path class="cls-34" d="M159.19,105.25c0,.31,0,.62-.37.65s-.44-.31-.53-.63a3.16,3.16,0,0,0-5.47-1.4,2.3,2.3,0,0,0-.66,1.41c0,.35-.16.68-.55.61s-.44-.46-.39-.85a4.1,4.1,0,0,1,5.2-3C158,102.56,159.23,104,159.19,105.25Z"/><path class="cls-35" d="M149.72,84.2a5.62,5.62,0,0,1,.81,3.45,5.52,5.52,0,0,1-5.27,4.59c-1.36,0-2.75.08-3.77-1.15-.34-.63-1.1-.92-1.24-1.71a5.72,5.72,0,0,1,1.64-6.53,5.58,5.58,0,0,1,6.09-.4A4.25,4.25,0,0,1,149.72,84.2Z"/><path class="cls-36" d="M149.72,84.2A6.29,6.29,0,0,0,145,82a5.32,5.32,0,0,0-4.89,6.43,3.36,3.36,0,0,1,.11.94.43.43,0,0,1-.38-.3c-.42-1.5-.06-3,0-4.5a.34.34,0,0,1,.06-.2,11.57,11.57,0,0,1,2.42-2.56,5.51,5.51,0,0,1,7.07,1.41A1.36,1.36,0,0,1,149.72,84.2Z"/><path class="cls-37" d="M141.49,91.09a6,6,0,0,0,6.39,0,5.59,5.59,0,0,0,2.65-3.46c.28,2.13-1.42,4-3.54,4.82-1.84.68-3.38.15-5-.47C141.45,91.8,141.51,91.47,141.49,91.09Z"/><path class="cls-35" d="M169.85,84.19a5.22,5.22,0,0,1,.4,4.75c-1.25,3.49-6.95,4.36-8.62,2.16h0c-.66-.3-.82-1-1.21-1.54l0-.61a4.3,4.3,0,0,1-.38-2.88c.36-1.86,2.43-4.08,4.11-4.26C166.37,81.56,168.47,82,169.85,84.19Z"/><path class="cls-38" d="M169.85,84.19a6.43,6.43,0,0,0-5-2.17,5.33,5.33,0,0,0-4.65,4.81,4.76,4.76,0,0,0,.18,2.12,3.57,3.57,0,0,1-.7-3.3,8.66,8.66,0,0,1,1.56-2.9,2.59,2.59,0,0,1,1.89-1.23,17.14,17.14,0,0,1,2.37-.35,5.17,5.17,0,0,1,4.11,2.13A1.28,1.28,0,0,1,169.85,84.19Z"/><path class="cls-39" d="M161.63,91.1c.85.2,1.52.84,2.47.9a6.55,6.55,0,0,0,6.15-3.06c-.29.86,0,2.15-1.4,2.21-.34,1-1.16,1.18-2,1.43a4.69,4.69,0,0,1-3.22,0,2.08,2.08,0,0,0-.68-.15A1.2,1.2,0,0,1,161.63,91.1Z"/><path class="cls-39" d="M160.42,89.56a7.91,7.91,0,0,1,1.21,1.54C160.52,91.2,160.74,90.14,160.42,89.56Z"/><path class="cls-40" d="M145.1,83.87a2.86,2.86,0,0,1,3,3,3,3,0,0,1-3,3.22,3.11,3.11,0,0,1-3-3.37A3,3,0,0,1,145.1,83.87Z"/><path class="cls-41" d="M168.22,86.89a3,3,0,1,1-3-3.14A3,3,0,0,1,168.22,86.89Z"/><path class="cls-42" d="M143.66,84.85a.86.86,0,0,1,.88.86.78.78,0,0,1-.8.89.75.75,0,0,1-.85-.82A.85.85,0,0,1,143.66,84.85Z"/><path class="cls-43" d="M163.84,86.61a.76.76,0,0,1-.82-.86.78.78,0,0,1,.81-.88.82.82,0,0,1,.84.87A.8.8,0,0,1,163.84,86.61Z"/></g><g id="Capa_5" data-name="Capa 5"><circle class="cls-28" cx="145.2" cy="86.97" r="4.78"/><path class="cls-44" d="M142.45,84.73,147,89.35l.65.65c.57.58,1.45-.31.89-.88L144,84.5l-.65-.66c-.56-.57-1.45.31-.88.89Z"/><path class="cls-44" d="M147.66,83.94l-4.56,4.62-.65.66a.62.62,0,0,0,.88.88l4.57-4.62.65-.65c.56-.58-.32-1.46-.89-.89Z"/><circle class="cls-28" cx="165.94" cy="86.91" r="4.78"/><path class="cls-44" d="M163.19,84.66l4.56,4.62.65.66a.63.63,0,0,0,.88-.89l-4.56-4.61-.65-.66a.62.62,0,0,0-.88.88Z"/><path class="cls-44" d="M168.4,83.88l-4.57,4.62-.64.65a.63.63,0,0,0,.88.89l4.56-4.62.65-.66a.62.62,0,0,0-.88-.88Z"/></g></g></svg>