<svg xmlns="http://www.w3.org/2000/svg" viewBox="0 0 294 360"><defs><style>.cls-1{fill:#1d1d1b;opacity:0.5;}.cls-2{fill:#f59b47;stroke:#331710;stroke-miterlimit:10;stroke-width:4px;}.cls-3{fill:#f59c47;}.cls-4{fill:#331710;}.cls-5{fill:#f49b47;}.cls-6{fill:#e8b264;}.cls-7{fill:#020203;}.cls-8{fill:#020303;}.cls-9{fill:#010202;}.cls-10{fill:#020202;}.cls-11{fill:#c5c5c5;}.cls-12{fill:#c6c6c5;}.cls-13{fill:#c6c5c5;}.cls-14{fill:#c3c3c2;}.cls-15{fill:#c3c2c2;}.cls-16{fill:#c5c4c4;}.cls-17{fill:#c7c7c7;}.cls-18{fill:#c6c6c6;}.cls-19{fill:#fefefe;}.cls-20{fill:#fffefe;}.cls-21{fill:#faf9fa;}.cls-22{fill:#f6f6f6;}.cls-23{fill:#c8c7c7;}.cls-24{fill:#fff;}.cls-25{fill:#f2af9a;}.cls-26{fill:#111;}.cls-27{fill:#f9c4af;}.cls-28{fill:#f7c5b0;}.cls-29{fill:#f8c5af;}.cls-30{fill:#160d0b;}.cls-31{fill:#fdfdfd;}.cls-32{fill:#decfcb;}.cls-33{fill:#e3cdc5;}.cls-34{fill:#decfca;}.cls-35{fill:#e2cdc8;}.cls-36{fill:#030404;}.cls-37{fill:#030303;}.cls-38{fill:#efefef;}.cls-39{fill:#f0f0f0;}</style></defs><title>escena3</title><g id="fondo"><rect class="cls-1" width="294" height="360" rx="14.17"/></g><g id="base_horca" data-name="base horca"><rect class="cls-2" x="11.36" y="325.14" width="259.46" height="17.33" rx="7.29"/><rect class="cls-2" x="30.99" y="21.87" width="143.46" height="14.42" rx="4.95"/><rect class="cls-2" x="-115.9" y="169.95" width="310.38" height="17.33" rx="7.98" transform="translate(-139.33 217.9) rotate(-90)"/><g id="Capa_3" data-name="Capa 3"><path class="cls-3" d="M157.32,27.32c0,5.77.05,23.67.08,29.45,0,.35-.17.46-.74.49-3.13.12-3.13.13-3.13-1.86,0-5.32,0-22.76,0-28.08Z"/><path class="cls-4" d="M182.9,97.72c-.19-2.8-1.59-5.45-3.13-8a92.5,92.5,0,0,0-11.69-15c-.32-.35-.42-.54.19-.84,2.46-1.22,3-3.28,1.24-4.94-.35-.33-.34-.51,0-.84,1.38-1.36,1.41-2.76,0-4.11-.4-.39-.27-.58.07-.91,2.29-2.25.24-5.18-3.92-5.67a17.49,17.49,0,0,0-3-.08c-1,0-1.33-.1-1.32-.8.05-5.52,0-23.17,0-28.68,0-1-.6-1.56-1.72-1.66a2.09,2.09,0,0,0-2.31,1.21c-.48.37-.32,13-.32,13.37q0,7.44,0,14.88a4.64,4.64,0,0,1,0,.83c0,.17,0,.39-.33.46a4.94,4.94,0,0,1-2.23,0c-.62-.13-.42-.55-.47-.86a5.14,5.14,0,0,1,0-.68q0-7.34,0-14.65c0-.42.1-13-.38-13.37a2.09,2.09,0,0,0-2.31-1.21c-1.09.1-1.68.64-1.72,1.58v.46c0,5,0,22.05,0,27,0,.67.44,1.52-.2,2s-1.89.07-2.88.11h-.23c-4.9.23-7.37,3.29-4.72,5.89.29.29.26.44,0,.71-1.45,1.38-1.46,2.8-.06,4.18.34.34.35.51,0,.84-1.64,1.57-1.27,3.69,1,4.79.86.43.75.7.3,1.19-5.12,5.61-9.89,11.33-13,17.55-1.56,3.16-2.39,6.37-1.18,9.63,2.65,7.08,9.55,11.62,20.65,13.54a20.77,20.77,0,0,1,3.19.45h6c.06-.11.21-.12.38-.13a34.37,34.37,0,0,0,15.75-4.74C180.42,107.48,183.24,103,182.9,97.72Zm-11.82,1.85c-.62,5.17-8.47,9.42-16.63,9-7.43-.42-13-3.56-14.44-8.19-.69-2.16.11-4.23,1.18-6.25,3.38-6.34,8.5-12.14,13.9-17.85a5.47,5.47,0,0,1,1.63-1.53c1.09.67.36-1,.61,0-1.09.77.44,3.54,1.3,4.5A84.45,84.45,0,0,1,169,92.73C170.27,94.93,171.37,97.16,171.08,99.57Z"/><path class="cls-3" d="M157.33,74.71c-.73-.81.13.8-.61,0l6.22,0a1.06,1.06,0,0,1,.93.35c5.53,6.06,10.82,12.18,14,19,3.49,7.45-1.55,14.8-12.53,18.17-12.9,4-29-.84-32.6-9.66-1.41-3.42-.64-6.71,1.05-10,2.78-5.35,6.85-10.32,11.2-15.2.65-.72,1.34-1.43,2-2.17a1.3,1.3,0,0,1,1.19-.47c1.2,0,2.39,0,3.6,0,.06.33-.29.53-.5.76a113.19,113.19,0,0,0-11.4,13.9A24.17,24.17,0,0,0,136.05,97c-.8,3.56.64,6.75,4.22,9.48,4.94,3.78,11.45,5.28,19,4.34s12.44-3.87,14.91-8.46c1.39-2.59,1-5.17-.11-7.75a47.12,47.12,0,0,0-6.24-9.73C166,82.51,164,80.25,162,78,161.17,77,159,74.42,157.33,74.71Z"/><path class="cls-5" d="M154.72,63.59c.33.81,1.17,1.13,2.47,1.12,2.31,0,4.62,0,6.93,0,1.09,0,2.09.17,2.36,1s-.6,1.51-2.33,1.52c-2.59,0-5.18,0-7.77,0h-9.56c-1.1,0-2.09-.17-2.38-1s.32-1.27,1.49-1.47a11.72,11.72,0,0,1,2.37-.06c1.35,0,2.21-.29,2.59-1.12A7,7,0,0,1,154.72,63.59Z"/><path class="cls-6" d="M154.72,63.59h-3.83c-.43-1.11-.91-1.36-2.72-1.36-.68,0-1.36,0-2,0-1.11-.07-1.81-.6-1.75-1.29s.76-1.13,1.85-1.13q9.19,0,18.39,0c1.15,0,1.88.51,1.9,1.19s-.73,1.23-1.94,1.25c-2.43,0-4.85,0-7.28,0C155.61,62.23,155,62.54,154.72,63.59Z"/><path class="cls-6" d="M155.34,72.14c-2.87,0-5.74,0-8.61,0-1.53,0-2.35-.45-2.35-1.22s.86-1.24,2.35-1.24q8.73,0,17.46,0c1.49,0,2.35.47,2.35,1.24s-.83,1.22-2.35,1.22C161.24,72.15,158.29,72.14,155.34,72.14Z"/></g></g><g id="ladron"><g id="tronco"><path class="cls-7" d="M130.84,137.54c-.07-2.77-.13-5.54-.22-8.31-.05-1.34.12-1.67.68-1.67q23.73.09,47.45,0c.85,0,1.14.45,1,2.58-.17,2.47.06,5-.26,7.49a1.27,1.27,0,0,1-.55.65,2.55,2.55,0,0,1-1.33.17H132.79a4,4,0,0,1-1.23-.12C131.28,138.3,131,138.1,130.84,137.54Z"/><path d="M161.28,188.94l-14.43-.39c-3.73,0-13.61-3-13.61-6.75v-2.36c0-3.73-2.44-10.5,1.29-10.5l40.36-1.45c3.73,0,2.62,9.8,2.62,13.53l-.67,1.55C176.84,186.3,165,188.94,161.28,188.94Z"/><path class="cls-8" d="M132.27,167v-3a1.35,1.35,0,0,1,1.13-.34,5.88,5.88,0,0,1,1,0h41.17c.44,0,.89,0,1.33,0s1-.09,1.3.38l-.19,4.19c-.42.49-1,.35-1.51.37-.31,0-.61,0-.92,0H134.54a4.34,4.34,0,0,1-.72,0C132.47,168.61,132.47,168.61,132.27,167Z"/><path class="cls-9" d="M179.28,144l-.2,4.06a1.55,1.55,0,0,1-1.26.31H132.6a2.11,2.11,0,0,1-1.38-.31c0-1.37,0-2.74,0-4.11a1.24,1.24,0,0,1,.75-.28,4.84,4.84,0,0,1,.93-.05h44.94a4.35,4.35,0,0,1,.51,0A1.37,1.37,0,0,1,179.28,144Z"/><path class="cls-9" d="M131.86,158.14l-.22-4a1.56,1.56,0,0,1,1.26-.32h44.66c1.25,0,1.32.13,1.15,1.81l-.25,2.56a1.47,1.47,0,0,1-1.15.34q-22,0-44.11,0C132.73,158.49,132.23,158.58,131.86,158.14Z"/><path class="cls-10" d="M132.67,175.53c0-.44,0-.88,0-1.33.54-.61,1.27-.25,1.9-.39q20.66,0,41.32,0c.58.09,1.23-.14,1.74.35a20.05,20.05,0,0,1-.24,4.24.75.75,0,0,1-.74.25c-4.48-.22-9-.08-13.44-.09-9,0-18,0-27,0a9,9,0,0,0-2.25.13,1.22,1.22,0,0,1-1.15-.32c-.4-.47-.13-1-.1-1.49A3.61,3.61,0,0,0,132.67,175.53Z"/><path class="cls-11" d="M132.88,178.22a5.6,5.6,0,0,0,2.34.07h39.63c.85,0,1.71.07,2.56.1a21.69,21.69,0,0,1-.15,3.86c0,.56-.33.73-.81.73-.92,0-1.84,0-2.77,0-13.13,0-26.26,0-39.39,0-1,0-1.36-.32-1.24-1.32A21.24,21.24,0,0,1,132.88,178.22Z"/><path class="cls-12" d="M178.71,155.6c-.08-1.56-.08-1.55-1.6-1.55H133.06a3.1,3.1,0,0,0-1.42.05l0-.24a1.32,1.32,0,0,1,.93-.3,8.58,8.58,0,0,1,1.34,0h42.21c1.19,0,1.37-.19,1.42-1.43,0-.86.14-1.72.24-2.57.07-.64-.1-1-.76-.92-.2,0-.41,0-.61,0H134.17c-1.85,0-1.85,0-1.65,2a4.78,4.78,0,0,1,0,.76,11.3,11.3,0,0,1-.08,1.16c-.12.59-.4.71-.84.29-.31-1.56,0-3.19-.42-4.75a4.9,4.9,0,0,0,1.83,0q22.2,0,44.41,0a4,4,0,0,0,1.62-.05c-.16,2.24-.26,4.49-.2,6.75A1.11,1.11,0,0,1,178.71,155.6Z"/><path class="cls-13" d="M131.86,158.14c.72,0,1.43,0,2.15,0h43.83l.62,0c0,.22,0,.45,0,.67-.26.27-.52.52-.8.76s-.48.18-.64-.14a1,1,0,0,0-1-.69H135c-1.81,0-1.8,0-1.65,1.89,0,.61.16,1.21.19,1.82a2,2,0,0,1-.28,1.54l-1,0a3.44,3.44,0,0,1-.21-1.56C132,161,131.92,159.59,131.86,158.14Z"/><path class="cls-14" d="M135.06,113.71c-.62,0-1.25,0-1.85,0-1.47.16-2.22-.17-2.05-1.25,2.94-.88,6.11-1.27,9.13-2,.53-.12,1-.18,1-.63l3.47,1.72c-.28.51-1,.6-1.62.7C140.44,112.73,137.84,113.48,135.06,113.71Z"/><path class="cls-15" d="M166.63,111.6l3.05-1.55c.45.75,1.6.54,2.39.77,2.34.66,4.82,1.11,7.24,1.65.1,1.34-1.07,1.43-2.52,1.24-2.63-.27-5.14-.85-7.69-1.34A6.13,6.13,0,0,1,166.63,111.6Z"/><path class="cls-12" d="M177.65,174.16l-1.65,0a47.27,47.27,0,0,1,.2-5.05,1,1,0,0,1,.41-.71l1.42-.08C177.81,170.23,178,172.21,177.65,174.16Z"/><path class="cls-11" d="M134.51,174.11l-1.82.09-.42-7.21c0,1,.4,1.54,1.42,1.36.62.91.4,2,.54,3S134.43,173.19,134.51,174.11Z"/><path class="cls-16" d="M177.26,159.7c.43-.23.43-1.13,1.19-.87.13,1.76-.24,3.5-.23,5.25L177,164A5.4,5.4,0,0,1,177.26,159.7Z"/><path class="cls-17" d="M131.85,143.9l-.64,0c-.33-1.94-.15-3.91-.37-5.85l.59.07c.08.08.2.14.21.23A13,13,0,0,1,131.85,143.9Z"/><path class="cls-18" d="M179.28,144l-.81-.07a13.27,13.27,0,0,1,.61-5.77l.42,0C179.61,140.08,179.35,142,179.28,144Z"/><path class="cls-19" d="M132.88,178.22a17.52,17.52,0,0,1,.17,3.47c-.33-.19-.62-.54-.45-.86a2.65,2.65,0,0,0-.15-2.42c-.39-1,.5-1.89.22-2.88A11,11,0,0,1,132.88,178.22Z"/><path class="cls-18" d="M131.64,152.79c.26,0,.65.26.61-.34,0-.32,0-.65,0-1,.85.69.52,1.53.27,2.35l-.91,0Z"/><path class="cls-20" d="M131.17,118.09a6.22,6.22,0,0,1,1-.14q23.16,0,46.31,0a6.41,6.41,0,0,1,.95.14,2.72,2.72,0,0,1,.27,1.12c0,2.5.17,5,.13,7.51a1.31,1.31,0,0,1-.22.76,2.23,2.23,0,0,1-1,.08H131.9c-1.3,0-1.35,0-1.26-2.14.07-1.89.24-3.77.21-5.67A3.91,3.91,0,0,1,131.17,118.09Z"/><path class="cls-17" d="M132.44,118a29.1,29.1,0,0,1-.22,4.94c-.07.63.15.73.64.68a4.51,4.51,0,0,1,.52,0h45.24a.39.39,0,0,1,.51,0c-.36.31-.79.17-1.18.17H133c-1.84,0-1.84,0-1.75-2,0-1,.14-1.94.09-2.9S131.58,117.75,132.44,118Z"/><path class="cls-21" d="M166.63,111.6c2.44.43,4.92.78,7.31,1.32,1.23.27,2.67.14,3.7.79H160.79Z"/><path class="cls-22" d="M133.7,113.71c2.78-.79,5.79-1.13,8.71-1.65a19.68,19.68,0,0,0,2.11-.46l6,2.11Z"/><path class="cls-23" d="M179.13,123.68l-.51,0c.19-1.88-.36-3.74-.13-5.62.36-.11.59,0,.59.43C179.09,120.2,179.11,121.94,179.13,123.68Z"/><path class="cls-24" d="M179.08,138.14c-.2,1.92-.41,3.85-.61,5.77l-8.53,0H132.77c-.31,0-.61,0-.92,0-.18-1.91-.12-3.84-.42-5.75l1.85-.05h44.57C178.26,138.1,178.67,138.13,179.08,138.14Z"/><path class="cls-24" d="M134.51,174.11a.88.88,0,0,1-.42-.67c-.11-1.7-.26-3.39-.4-5.09.28,0,.55,0,.82,0H175.8c.27,0,.54,0,.81,0-.37,1.56-.1,3.18-.39,4.75-.06.34,0,.71-.22,1l-13.86,0Z"/><path class="cls-24" d="M177.26,159.7A22.68,22.68,0,0,0,177,164a7.35,7.35,0,0,1-.82.07H134c-.24,0-.47,0-.71-.05a25.25,25.25,0,0,0-.36-4.26c-.19-1.23-.09-1.36,1.1-1.36q21,0,41.93,0C177,158.35,177.43,158.6,177.26,159.7Z"/><path class="cls-19" d="M155.23,178.5c6.53,0,13.07,0,19.61,0,.7,0,1,0,1,1-.15,2.15.23,2-2,2-9,0-18-.07-27,.08-3.7.07-7.39.06-11.08.17-.81,0-1.15-.23-1-1.08a1.69,1.69,0,0,0,0-.32c-.07-1.82-.07-1.82,1.74-1.82Z"/><path class="cls-24" d="M132.52,153.83c-.22-.77.14-1.6-.27-2.35-.07-.88-.11-1.78-.23-2.66-.06-.46.09-.56.46-.52H133q22.07,0,44.13,0c.75,0,1.08.09,1,1-.16,1.17-.16,2.36-.24,3.53-.05.69-.3,1-1.08,1Q154.64,153.82,132.52,153.83Z"/><path class="cls-7" d="M130.89,117.79c-.07-1.19-.12-2.37-.21-3.55-.05-.57.12-.72.68-.71q23.71,0,47.44,0c.86,0,1.15.2,1,1.11a21.56,21.56,0,0,1-.25,3.2,1.16,1.16,0,0,1-.55.28,5.91,5.91,0,0,1-1.33.07H132.85a8.45,8.45,0,0,1-1.23-.06A1,1,0,0,1,130.89,117.79Z"/></g><g id="cara"><path class="cls-25" d="M181.86,87a29.09,29.09,0,0,1-7.72,19.67,25.87,25.87,0,0,1-18.69,8.19C140.86,114.83,129,102.36,129,87s11.83-27.85,26.42-27.85S181.86,71.59,181.86,87Z"/><path class="cls-26" d="M131.63,98.7a20.58,20.58,0,0,1-2.22-7,28.15,28.15,0,0,1,14.07-29.56C159,53.8,178.1,63.6,181.37,81.62a28.93,28.93,0,0,1-1.72,16.43,5.67,5.67,0,0,1-.36.63,3.74,3.74,0,0,1-2.3.3q-22.05,0-44.08,0A1.87,1.87,0,0,1,131.63,98.7Z"/><path class="cls-27" d="M131.63,98.7c.51,0,1-.07,1.54-.07h45.19c.31,0,.62,0,.93,0a.8.8,0,0,1-.39.85c-.56-.51-.94-.26-1.32.29a24.64,24.64,0,0,1-6.67,6.2,34.12,34.12,0,0,1-4.44,2.89,27.54,27.54,0,0,1-10.58,2.55c-3.26.13-7.74.3-10.84-.83a16.07,16.07,0,0,1-4.61-3.15c-1.2-1-2.82-3-4.45-1.89a21.64,21.64,0,0,1-4.06-5.89A1.62,1.62,0,0,1,131.63,98.7Z"/><path class="cls-28" d="M152.41,87.09a7.33,7.33,0,1,1-7.27-7.79A7.52,7.52,0,0,1,152.41,87.09Z"/><path class="cls-29" d="M165.06,94.6c-4.14-.08-7.26-3.56-7.16-8a7.44,7.44,0,0,1,7.56-7.38c4,.09,7.17,3.64,7.07,8A7.44,7.44,0,0,1,165.06,94.6Z"/><path class="cls-30" d="M159.19,105.25c0,.31,0,.62-.37.65s-.44-.31-.53-.63a3.16,3.16,0,0,0-5.47-1.4,2.3,2.3,0,0,0-.66,1.41c0,.35-.16.68-.55.61s-.44-.46-.39-.85a4.1,4.1,0,0,1,5.2-3C158,102.56,159.23,104,159.19,105.25Z"/><path class="cls-31" d="M149.72,84.2a5.62,5.62,0,0,1,.81,3.45,5.52,5.52,0,0,1-5.27,4.59c-1.36,0-2.75.08-3.77-1.15-.34-.63-1.1-.92-1.24-1.71a5.72,5.72,0,0,1,1.64-6.53,5.58,5.58,0,0,1,6.09-.4A4.25,4.25,0,0,1,149.72,84.2Z"/><path class="cls-32" d="M149.72,84.2A6.29,6.29,0,0,0,145,82a5.32,5.32,0,0,0-4.89,6.43,3.36,3.36,0,0,1,.11.94.43.43,0,0,1-.38-.3c-.42-1.5-.06-3,0-4.5a.34.34,0,0,1,.06-.2,11.57,11.57,0,0,1,2.42-2.56,5.51,5.51,0,0,1,7.07,1.41A1.36,1.36,0,0,1,149.72,84.2Z"/><path class="cls-33" d="M141.49,91.09a6,6,0,0,0,6.39,0,5.59,5.59,0,0,0,2.65-3.46c.28,2.13-1.42,4-3.54,4.82-1.84.68-3.38.15-5-.47C141.45,91.8,141.51,91.47,141.49,91.09Z"/><path class="cls-31" d="M169.85,84.19a5.22,5.22,0,0,1,.4,4.75c-1.25,3.49-6.95,4.36-8.62,2.16h0c-.66-.3-.82-1-1.21-1.54l0-.61a4.3,4.3,0,0,1-.38-2.88c.36-1.86,2.43-4.08,4.11-4.26C166.37,81.56,168.47,82,169.85,84.19Z"/><path class="cls-34" d="M169.85,84.19a6.43,6.43,0,0,0-5-2.17,5.33,5.33,0,0,0-4.65,4.81,4.76,4.76,0,0,0,.18,2.12,3.57,3.57,0,0,1-.7-3.3,8.66,8.66,0,0,1,1.56-2.9,2.59,2.59,0,0,1,1.89-1.23,17.14,17.14,0,0,1,2.37-.35,5.17,5.17,0,0,1,4.11,2.13A1.28,1.28,0,0,1,169.85,84.19Z"/><path class="cls-35" d="M161.63,91.1c.85.2,1.52.84,2.47.9a6.55,6.55,0,0,0,6.15-3.06c-.29.86,0,2.15-1.4,2.21-.34,1-1.16,1.18-2,1.43a4.69,4.69,0,0,1-3.22,0,2.08,2.08,0,0,0-.68-.15A1.2,1.2,0,0,1,161.63,91.1Z"/><path class="cls-35" d="M160.42,89.56a7.91,7.91,0,0,1,1.21,1.54C160.52,91.2,160.74,90.14,160.42,89.56Z"/><path class="cls-36" d="M145.1,83.87a2.86,2.86,0,0,1,3,3,3,3,0,0,1-3,3.22,3.11,3.11,0,0,1-3-3.37A3,3,0,0,1,145.1,83.87Z"/><path class="cls-37" d="M168.22,86.89a3,3,0,1,1-3-3.14A3,3,0,0,1,168.22,86.89Z"/><path class="cls-38" d="M143.66,84.85a.86.86,0,0,1,.88.86.78.78,0,0,1-.8.89.75.75,0,0,1-.85-.82A.85.85,0,0,1,143.66,84.85Z"/><path class="cls-39" d="M163.84,86.61a.76.76,0,0,1-.82-.86.78.78,0,0,1,.81-.88.82.82,0,0,1,.84.87A.8.8,0,0,1,163.84,86.61Z"/></g></g></svg>